<svg xmlns="http://www.w3.org/2000/svg" xmlns:xlink="http://www.w3.org/1999/xlink" viewBox="0 0 485 439"><style>.st0{fill:none}.st1{fill:transparent}.st2{fill:#c3bfba}.st3{fill:url(#SVGID_1_)}</style><pattern x="25.5" y="121.2" width="476.8" height="436.4" patternUnits="userSpaceOnUse" id="New_Pattern_2" viewBox="476.8 -872.8 476.8 436.4" overflow="visible"><path class="st0" d="M476.8-872.8h476.8v436.4H476.8z"/><path class="st1" d="M961.8 0h-485v-439h485z"/><path class="st2" d="M714.3-436.4h.8v-.8h-.8v.8zm181.8-2.3c-.3.1-.8 0-.8.4.3-.1.8-.1.8-.4zM478-437.6c-.3.1-.8 0-.8.4.4-.1.8 0 .8-.4zm6.2-1.1c-.1-.1-.6.2-.4.4.1.1.6-.2.4-.4zm104.6 1.5c-.1-.1-.6.2-.4.4.1.1.6-.2.4-.4z"/><path class="st1" d="M485 0H0v-439h485z"/><path class="st1" d="M961.8-436.4h-485v-439.1h485z"/><path class="st2" d="M604.4-732.7c.2-.1 0-.2 0 0zm187.4 40.9c.1.1.6-.2.4-.4-.1 0-.6.2-.4.4zm1.6-49.8c0-.4-.7-.5-.8 0 .1.5.4.3.8 0zm-.4-96.9c-.1-.1-.6.2-.4.4.1.1.6-.2.4-.4zM789.9-457v1.5h1.2c0-.9-.6-1.2-1.2-1.5zm1.6-324.3c-.1-.1-.6.2-.4.4.1.1.6-.2.4-.4zm1.1-66.5c0 .2-.1.5-.4.4v.8c1 .6 1.2-1.3.4-1.2zm4.6 49.1c-.1-.1-.6.2-.4.4.2.1.7-.2.4-.4zm-.3 103.5c.1.1.6-.2.4-.4-.2-.1-.6.2-.4.4zm-12.4 106.5c.3-.1.8 0 .8-.4-.3.1-.8.1-.8.4zm11.2 132.5c-.5.5-.2 1.5.4 1.9 0-1.4.7-1.1 1.2-.4.3-.8 1.3-1.6 0-1.9-.4 1.1-.6.4-1.6.4zm-10-360.7c-.1-.1-.6.2-.4.4.1.1.6-.2.4-.4zm8.5 131.7v.8h1.2c0-.7-.5-.9-1.2-.8zm.3-15.4c.3-.1.8 0 .8-.4-.3.1-.7 0-.8.4zm20.9-44.1c-.7 0-1 .3-1.2.8.7 0 1-.3 1.2-.8zm-3.5 231.3c-.1-.1-.6.2-.4.4.1.1.6-.2.4-.4zm-1.1-269.9c.1-.6.6-.7.8-1.2-.2 0-.5-.1-.4-.4h-.8c0 .7-.2 1.5.4 1.6zm.7-48.2c0 .2.3.4.4 0 0-.2-.3-.5-.4 0zm-.7 206.9v1.2h1.2c0-.9-.4-1.2-1.2-1.2zm-7-58.7v-.8h-.8v.8h.8zm2.7 91.9h-.8v.8h.8v-.8zm-6.2 85.8c-.1.7.4.9.4 1.6 1.7.1 1.4-2.2-.4-1.6zm0-63.8c-.3.9 1.5.8 1.2 0-.1-.3-1-.4-1.2 0zm.4 4.7c.1.1.6-.2.4-.4-.1-.1-.6.2-.4.4zm1.2 48.6c-.1-.1-.6.2-.4.4.1.1.6-.2.4-.4zm-2.7 9.3c.1.1.6-.2.4-.4-.1-.1-.6.2-.4.4zm2.7-152.5c0-.2-.3-.4-.4 0 0 .2.3.4.4 0zm3.5 130.5c0 .4.7.5.8 0-.5 0-.7-.6-.8 0zm-7.4-26.3c.1.1.6-.2.4-.4-.1-.1-.6.2-.4.4zm2.3 9.3c-.3.1-.8 0-.8.4.4-.1.8 0 .8-.4zm12-16.2c-.1-.1-.6.2-.4.4.1.1.6-.2.4-.4zm-35.5 43.2c-.3.1-.8 0-.8.4.3-.1.8 0 .8-.4zm-1.6-6.1c0 .5-.2.8-.4 1.2h1.2c0-.7.1-1.4-.8-1.2zm.4 45.1c.3-.1.8 0 .8-.4-.3.1-.8.1-.8.4zm-.7-88.8c.1.1.6-.2.4-.4-.2-.1-.6.2-.4.4zm1.5 127.1c-.5-.1-.7-.6-1.5-.4-.3 1.3 1.4 1.5 1.5.4zm.4-39.4c-.1-.1-.6.2-.4.4.1.1.6-.2.4-.4zm4.6-192.7c-.9 1.3 1.3-.9 0 0zm-.4-179.6c-1 1.2 1.2-1 0 0zm-3.4 177.7c.4 0 .5.3.8.4 0-.4.3-.5.4-.8-.4 0-.5-.3-.8-.4 0 .4-.4.5-.4.8zm3.4 140.9c.1.1.6-.2.4-.4-.1-.1-.6.2-.4.4zm-2.3-159.9c-.1 1 .5 1.3 1.5 1.2.5-1.3-.5-1.3-1.5-1.2zm0 48.7c.3-.1.8 0 .8-.4-.3.1-.8 0-.8.4zm5.4 107.7c-.3.9 1.5.8 1.2 0-.1-.3-1-.4-1.2 0zm-1.1-87.2c0-.2-.3-.4-.4 0 0 .2.3.4.4 0zm-13.5-8.1c-1.3-.1-1.9.5-1.9 1.5.6.6 2.2 0 1.9-1.5zM759-499.5c.1.1.6-.2.4-.4-.1-.1-.6.2-.4.4zm22 22.8c.1-1.7-.7-2.4-1.5-3.1-.9.6.8 1.2-.8 1.2-.8-.1-.4-1.4-1.2-1.5.4 1.4-1.4.6-1.2 1.9 2.1 0 2.5 3 4.7 1.5zm-.3 37.9c.5-1.2 1.5.6 1.9-.4.2-2-3.6-1-1.9.4zm-1.2-242.1c.5.1.7.5 1.5.4v-1.2c-.8-.1-1.4.1-1.5.8zm9.3 181.8c-.1-.1-.6.2-.4.4.1.1.6-.2.4-.4zm-1.6 16.2h-.8v.8h.8v-.8zm.8-315c0-.4-.7-.5-.8 0 .4-.1.6.5.8 0zm-.8 264.1c-.1-.1-.6.2-.4.4.1.1.6-.2.4-.4zm1.9 37.4c-.1-.1-.6.2-.4.4.2.1.6-.2.4-.4zm.4 29.4c-.1-.1-.6.2-.4.4.2.1.6-.2.4-.4zm-7.3-225.1c-.1-.1-.6.2-.4.4.1.1.6-.2.4-.4zm2.3 249.8c.1.5.4.2.8 0 0-.4-.7-.5-.8 0zm0-49.4v1.5h1.9c.3-1.4-.6-1.7-1.9-1.5zm1.6-366.5c-.2 1.2 1 1.1 1.5 1.5-.1-.8-.2-1.7-1.5-1.5zm.7 117.4c-.9 1.3 1.3-.9 0 0zm-.7-109.7c.1.1.6-.2.4-.4-.2 0-.6.2-.4.4zm-9.3 274.6c0-.2-.3-.4-.4 0 0 .2.3.4.4 0zm-1.2 39.4c1.5.2 3 1.9 4.2 1.2-.4-1.4-2.1-1.5-2.3-3.1-.7 0-1.2-.1-1.5-.4.3 1.1-.6 1.1-.4 2.3zm7-143.3c-.1-.1-.6.2-.4.4.1.1.6-.2.4-.4zm54 103.5c.4 0 .6.6.8 0 0-.4-.7-.5-.8 0zm-23.9-188.4c0-.4-.7-.5-.8 0 .1.4.4.2.8 0zm23.9 283c-.3.1-.8 0-.8.4.4-.1.8 0 .8-.4zm-.4-84.9c-.1-.1-.6.2-.4.4.2 0 .6-.3.4-.4zm14.7-267.2c0-.2-.3-.4-.4 0 0 .2.3.4.4 0zm.4 77.6v.8h1.2c0-.8-.4-1-1.2-.8zm-15.8 276c.1.1.6-.2.4-.4-.2 0-.6.2-.4.4zm17.3-108.1c-.5 0-.5-.5-1.2-.4-.5 1 1.4 1.2 1.2.4zm-.7-219.7c-.1-.1-.6.2-.4.4.1.1.6-.2.4-.4zM842-516.1v-1.2c-.7 0-1.2.1-1.5.4-.4 1.2.8.7 1.5.8zm11.2 61.8c0 .2.3.4.4 0 0-.2-.3-.4-.4 0zM842-462c-.3 2.3 1.8.2 0 0zm.4-327.4c-.3.1-.8 0-.8.4.3-.1.8-.1.8-.4zm-4.2 3c-.1-.1-.6.2-.4.4.1.1.6-.2.4-.4zm8.8 35.6c-1.2-.3-1.4.4-2.3.4-.3 3.7 3.8 2.6 2.3-.4zm-1.9 15.4c1.3 1.2 1.2-1.4 0 0zm.4 53.3h1.5c.3-1.5-1.6-1.3-1.5 0zM844.3-791c1.3 1.2 1.2-1.4 0 0zm2.4 148.3h-.8v.8h.8v-.8zm-2-180.3c-.9 1.3 1.3-1 0 0zm1.2 147.5c-.6.6-.4 1.7.8 1.5.7-.7-.1-1.2-.8-1.5zm5.4 188.4c.6-1-1.3-1.1-1.2-.4.2 0 .5.1.4.4h.8zm-8.1-156.8h.8v-.8h-.8v.8zm0 25.9h.8v-.8h-.8v.8zm.4 39c.7 0 1.2.1 1.5.4.3-1.3-1.5-1.5-1.5-.4zm-.4-142.9c.3-.1.8 0 .8-.4-.3.1-.8.1-.8.4zm5.8-140.5c0 .2.3.4.4 0 0-.2-.4-.5-.4 0zm0 287.3h.8v-.8h-.8v.8zm-.8-95c-.1-.1-.6.2-.4.4.1.1.6-.2.4-.4zm2.7 115.4c.2-1.2-.8-1.2-1.9-1.2-.1 1.1.9 1.2 1.9 1.2zm-2.3-116.2c-.9 1.3 1.3-.9 0 0zm-.8 28.6c-.1-.1-.6.2-.4.4.1.1.6-.2.4-.4zm-2.7 12.7v.8h1.2c0-.7-.4-.9-1.2-.8zm-.8 20.9v.8c.4 0 .5.3.8.4 0-.7.1-1.4-.8-1.2zm0-7.8c.2 1.2-.9 1.6.4 1.9.3-.2 1-2.2-.4-1.9zm3.5-126.6c-.3.1-.8 0-.8.4.3-.1.8 0 .8-.4zM838.9-569h-1.2c-.1.8.3 1.2 1.2 1.2v-1.2zm-19.6-1.5c-1.2 1.3 1.4 1.2 0 0zm.3-266.8c-.1-.1-.6.2-.4.4.2.1.6-.2.4-.4zm1.6 278c-.9 1.3 1.3-.9 0 0zM820-670.9c.5-.1 1.1.1 1.2-.4-.5.1-1.1-.1-1.2.4zm-1.1-5.4c-.1-.1-.6.2-.4.4.1.1.6-.2.4-.4zm.7-146h-.8v.8h.8v-.8zM820-630c0-.2-.3-.4-.4 0 0 .2.4.5.4 0zm-.7 22c.1.1.6-.2.4-.4-.2-.1-.6.2-.4.4zm-6.2-102.7c-.3 2.4 1.7.3 0 0zm1.5 167.6c-.7-.1-.9-.7-.8-1.5h-1.2c-1.4 1.1 1.2 2.7 2 1.5zm-4.6 60.6h-.8v.8h.8v-.8zm24.3-288.4c.1.1.6-.2.4-.4-.1-.1-.6.2-.4.4zm-26.2 299.6c.1.1.6-.2.4-.4-.2-.1-.6.2-.4.4zm1.1-86.1c-.1-.1-.6.2-.4.4.1.1.6-.2.4-.4zm.8-305.4c.9.1 1.5-.1 1.5-.8-.8-.1-1.4.1-1.5.8zm-.8 289.2h-.8v.8h.8v-.8zm0-26.6h-.8v.8h.8v-.8zm18.5-82.3c-.3.1-.8 0-.8.4.4-.1.8 0 .8-.4zm.8 155.6c-.6 0-1.3-.1-1.2.8.7 0 1-.3 1.2-.8zm-.8-139c0-.7-.3-1-.8-1.2-.5.6-.5 1.6.8 1.2zm.8-44c-.1-.1-.6.2-.4.4.1.1.6-.2.4-.4zm0 93.8c-.1-.1-.6.2-.4.4.1.1.6-.2.4-.4zm.8-147.5c-1.1-.5-2.3.7-1.2 1.2-.1-.9 1.1-.4 1.2-1.2zm1.5 191.5c0 .2.3.4.4 0 0-.2-.3-.4-.4 0zm0-227v.8c.4 0 .5.3.8.4 0-.6.1-1.4-.8-1.2zm1.2 148.7c.1.1.6-.2.4-.4-.1-.1-.6.2-.4.4zm-15.1-119.4v.8h.8v-.8h-.8zm1.2 332.1c0-.2-.3-.4-.4 0 0 .2.3.5.4 0zm6.6-95c-.3.1-.8 0-.8.4.3-.1.7 0 .8-.4zm-6.6-235.1c-.1-.1-.6.2-.4.4.1.1.6-.2.4-.4zm.4 324.7c-.1-.1-.6.2-.4.4.1.1.6-.2.4-.4zm3.5-88c-1.2 1.3 1.4 1.1 0 0zm4.2-239v-.8c-.7-1.3-1.9 1.1 0 .8zm-3.1 250.9c-.5.1-1.1-.1-1.2.4.5 0 1.2.1 1.2-.4zm0 81.9c-.1-.1-.6.2-.4.4.1.1.6-.2.4-.4zm1.2-36.3h-.8c0 .4-.3.5-.4.8.6-.1 1.4 0 1.2-.8zm13.9-30.1c0 .2.3.4.4 0 0-.2-.4-.4-.4 0zm-98.1 61c.1.1.6-.2.4-.4-.1-.1-.6.2-.4.4zm.8-10.4c0-.4-.7-.5-.8 0 .5-.1.6.5.8 0zm-5.4-72.2h-.8v.8h.8v-.8zm-.8-299.7c-.3.1-.8 0-.8.4.3-.1.8 0 .8-.4zm-1.1 371.5c-1 1.3 1.3-.9 0 0zm.3-161c-.1-.1-.6.2-.4.4.2.1.6-.2.4-.4zm13.6-81.1c.1.1.6-.2.4-.4-.2-.1-.6.2-.4.4zm1.1 37.1h-.8v.8h.8v-.8zm-2.3-119.4c.1.5-.1 1.1.4 1.2 0-.6 1-.3.8-1.2h-1.2zm0 258.7c-.1.5-.6.7-.4 1.5 1.3.4 1.5-1.4.4-1.5zm2.7 37.9c-.6.1-1.4-.1-1.5.4.5.5 1.4.5 1.5-.4zm-3.1 34c.6 1.4-1.3.2-1.2 1.2.7 1.1 2.4-.6 1.2-1.2zm1.2-82.7c.5-.1 1.1.1 1.2-.4-.5.1-1.2 0-1.2.4zm1.1-59.4c-.1-.1-.6.2-.4.4.2.1.6-.2.4-.4zm-.7 140.1c0-.5.2-.8.4-1.2h-.8c-.5.6-.4 1 .4 1.2zm.7-6.1c-.3.1-.8 0-.8.4.4-.1.8-.1.8-.4zm-5.8-35.6c-1.8-1-.9 1.3 0 0zm-.7-136.3v1.2h.8c0-.4.3-.5.4-.8-.6 0-.6-.5-1.2-.4zm-2.7 26.7c-.1-.1-.6.2-.4.4.1.1.6-.2.4-.4zm3.1 3.1c.1.5.4.2.8 0-.1-.4-.8-.5-.8 0zm-3.5 11.5c.1.1.6-.2.4-.4-.1 0-.6.2-.4.4zm1.9-235.1c-.1-.1-.6.2-.4.4.1.1.6-.2.4-.4zm0 329.4c-.9 1.3 1.3-1 0 0zm-.4 37.4c-.3.1-.8 0-.8.4.4-.1.8 0 .8-.4zm-.7-3.5h-.8v.8h.8v-.8zm2.3-94.2c-.4 0-.6-.6-.8 0 0 .4.7.5.8 0zm3.4-139.8c.1.1.6-.2.4-.4-.1 0-.6.2-.4.4zm0 208.6c.1.1.6-.2.4-.4-.1-.1-.6.2-.4.4zm-.3-357.6c.3-.1.8 0 .8-.4-.4.1-.8 0-.8.4zM737-492.5c.5 0 .5.5 1.2.4 0-.7-.3-1-.8-1.2 0 .4-.3.5-.4.8zm7.4-373.4c.1.1.6-.2.4-.4-.1-.1-.6.2-.4.4zm17.7-5.4v1.2c1.2.5 1.2-1.8 0-1.2zm-20 172.2c-.1-.1-.6.2-.4.4.1.1.6-.2.4-.4zm1.1-51.3c0-.6 1-.3.8-1.2-.8-.3-1.7 1-.8 1.2zm.4 90.7c-.5.5-.5 1.4 0 1.9 1 0 1.4-.7 1.9-1.2-1.2.4-.4-1.3-1.9-.7zm0 117c0 .4.7.5.8 0-.5 0-.6-.6-.8 0zm.4 24.3c.6-.6.4-1.7-.8-1.5-.1.9.1 1.4.8 1.5zm-18.5-45.9c-.3.1-.8 0-.8.4.3-.1.7-.1.8-.4zm-2.4 53.3h-.8v.8h.8v-.8zm-.3-11.2c-.5-.5-1.9-.6-1.9.4.5-.3 1.9.4 1.9-.4zm-1.2-168c-1.4 1.8 2.3.5 0 0zm-.8 137.8c.6 0 1.3.1 1.2-.8h-.8c0 .5-.3.5-.4.8zm-3.1-120.4c0-.4-.7-.5-.8 0 .1.4.5.2.8 0zm.8 64.1c-.5-.1-.7-.6-1.5-.4v1.9c1.2.2 1.7-.3 1.5-1.5zm2.3 147.1c-.9 1.3 1.3-1 0 0zm2.3-273c-.1-.1-.6.2-.4.4.2.1.6-.2.4-.4zm.8 124.3c-.4 0-.6-.6-.8 0 0 .4.7.5.8 0zm-1.9 29.7c.1.1.6-.2.4-.4-.1 0-.6.2-.4.4zm1.9 68.8c-.1-.1-.6.2-.4.4.1.1.6-.2.4-.4zm-4.6-66.8h-.8v.8h.8v-.8zm-16.6 130.1c.1.1.6-.2.4-.4-.1-.1-.6.2-.4.4zm20.8-165.6c-1.1 1.3 1.5 1.1 0 0zm-18.9 134.3c.6-.7.2-2.8-1.2-2.7-.8.6-2 .8-2.3 1.9 1.4.4 1.1-1 2.3-.8 0 1.1.6 1.3 1.2 1.6zm15.5 28.2h-.8v.8h.8v-.8zM718.9-608c.1.1.6-.2.4-.4-.1-.1-.6.2-.4.4zm.8 76.9c0-.4-.7-.5-.8 0 .1.4.4.2.8 0zm0-141.7c-.9-.1-1.4.1-1.5.8.6-.2 1.9.3 1.5-.8zm.4 8.8h-.8v.8h.8v-.8zm30.1 118.6c.1.1.6-.2.4-.4-.2-.1-.6.2-.4.4zm-24.4 18.9c.6-1-1.3-1.1-1.2-.4.2 0 .5.1.4.4h.8zm21.3 78c1.9 1.1 1.4-1.3 0 0zm-22.8-241.7c-.9 1.3 1.3-.9 0 0zm-8.9 44.4c.1.1.6-.2.4-.4-.1-.1-.6.2-.4.4zm0 165.3v1.2c1.1.5 1.1-1.8 0-1.2zm-.4-145.6c.1.7.3 1.3.8 1.5-.1-.7.4-1.9-.8-1.5zm0-.8c0 .2.3.4.4 0 0-.2-.3-.4-.4 0zm-.7-245.9h.8v-.8h-.8v.8zm2.7 420.1c.3-1.5-1.7-1.4-2.3-.8 0 1.4 1.3 1.1 2.3.8zm-3.5-281.9c.1.1.6-.2.4-.4-.1-.1-.6.2-.4.4zm4.6 138.2h-.8c0 .4-.3.5-.4.8.7 0 1.4 0 1.2-.8zm51-209.3h.8v-.8h-.8v.8zm1.5-26.6c0-.2-.3-.4-.4 0 0 .2.3.4.4 0zm-.8 136.7c0-.2-.3-.4-.4 0 .1.2.4.4.4 0zm-.7-166.4c.3-.1.8 0 .8-.4-.4.1-.8 0-.8.4zM766-479.4c-.5.5-.5 1.4 0 1.9.7.1.9-.4 1.5-.4.2-1.1-.3-1.7-1.5-1.5zm1.5 38.6c-.1-.1-.6.2-.4.4.2.1.6-.2.4-.4zm2.7-92.6c-.1.5-.6.7-.4 1.5 1.1.6 1.1-1.7.4-1.5zm-3.8 82.2c0 .2.3.4.4 0 0-.2-.4-.4-.4 0zm8.1-92.7c-.1-.1-.6.2-.4.4.1.1.6-.2.4-.4zm0-34.3c0-.2-.3-.4-.4 0 0 .2.3.4.4 0zm-23.2 117.7c.3-.1.8 0 .8-.4-.3.1-.8.1-.8.4zM774.1-808c-.1-.1-.6.2-.4.4.1.1.6-.2.4-.4zm-20.5 145.6c.1.1.6-.2.4-.4-.1-.1-.6.2-.4.4zm-.7 167.6h-.8c0 .4-.3.5-.4.8.6-.1 1.3 0 1.2-.8zm19.3-163.7v-.8h-.8v.8h.8zm.7-164.9v.8c.4 0 .5.3.8.4 0-.7.1-1.4-.8-1.2zm0 86.1c-.3.1-.8 0-.8.4.4-.1.8 0 .8-.4zm-5.8-78.8c0-.5-.1-.9-.8-.8.1.5-.1 1.1.4 1.2.1-.2.1-.5.4-.4zm-5.4 143.3c0 .1-.7.4-.4.8.3.2 1.3-2.3.4-.8zm-.3 142.4c-.3.1-.8 0-.8.4.3-.1.7 0 .8-.4zm1.9-303.8c-.1-.1-.6.2-.4.4.1.1.6-.2.4-.4zM760.6-540c0-.2-.3-.4-.4 0 0 .2.3.4.4 0zm-.4-143.6c0-.4-.7-.5-.8 0 .1.4.5.2.8 0zm1.5-149.9c-.1-.1-.6.2-.4.4.2.1.6-.2.4-.4zM759-437.3v.6h.8v-.6h-.8zm.8-252.9c-.1-.1-.6.2-.4.4.1.1.6-.2.4-.4zm6.6 201.9c-.4 0-.6-.6-.8 0 0 .4.7.5.8 0zm-1.6-84.5v1.2c1.2.5 1.2-1.8 0-1.2zm-.7-226.3c.1.1.6-.2.4-.4-.2-.1-.6.2-.4.4zm1.1 305.8c-.3.1-.8 0-.8.4.3-.1.8 0 .8-.4zm.8-161.4h.8v-.8h-.8v.8zm-13.9-149.8c1 .1 1.7-.1 1.5-1.2-.7.2-1.6.2-1.5 1.2zm12 199.2h.8v-.8h-.8v.8zm.7 78.8c-.4 0-.5-.3-.8-.4-1 .6.6 1.3.8.4zm.8-67.6c-.3.1-.8 0-.8.4.3-.1.8 0 .8-.4zm2.7-97.7c0-.4-.7-.5-.8 0 .1.5.5.3.8 0zm-39.8 75.7c.3-.1.8 0 .8-.4-.3.1-.7 0-.8.4zm.4 152.5c-.5.1-1.1-.1-1.2.4.5 0 1.2.1 1.2-.4zm0-91.1c-.9 1.3 1.3-.9 0 0zm0 10.1c-.1-.1-.6.2-.4.4.2.1.6-.2.4-.4zm.8 53.6h-.8v.8h.8v-.8zm-3.5-40.1h.8v-.8h-.8v.8zm5-185.8c0-1.1-1.8-.9-2.3-.4-.1.7.4.9.4 1.5 1.1.2 2.1.2 1.9-1.1zm-4.2 75.7c0 .4-.3.5-.4.8.5 0 .5.5 1.2.4 0-.7-.3-1-.8-1.2zm5.8-58.7c-.1-.1-.6.2-.4.4.1.1.6-.2.4-.4zM730.9-579c-.3.1-.8 0-.8.4.3-.1.7 0 .8-.4zm.3-218.2c0-.2-.3-.4-.4 0 .1.2.4.5.4 0zm1.6 280.7c0-.2-.3-.4-.4 0 0 .3.3.5.4 0zm-3.5-293c0 .5-.5.5-.4 1.2h.8c.4-.6.4-1-.4-1.2zm3.9 358.3c0-.2-.3-.4-.4 0 0 .2.3.4.4 0zm-.8-274.9v.8c.4 0 .5.3.8.4-.1-.7 0-1.4-.8-1.2zm20.8 134.7h-.8v.8h.8v-.8zm-22.3-16.2c-1 1.3 1.3-.9 0 0zm.3-61.4c0-.4-.7-.5-.8 0 .5 0 .7.6.8 0zm-.3 117.4v.8c.4 0 .5.3.8.4-.1-.6 0-1.4-.8-1.2zm0-273.8c-.6 1.9 1.3 2.4 2.3 1.5-.1-1.1-.9-1.6-2.3-1.5zm26.2 136c.3-.1.8 0 .8-.4-.3.1-.8 0-.8.4zm-1.9 138.6c.3-1.7-1.5-1.8-1.9-.8.4.4.6 1.1 1.9.8zm-.8 101.9c.1-.4-.3-1-.4-.4 0 .4.3 1 .4.4zm1.6-79.9c0-.4-.7-.5-.8 0 .1.5.4.2.8 0zm-.8-105.4c-.1-.1-.6.2-.4.4.1.1.6-.2.4-.4zm-.8-51.8c0 .2.3.4.4 0 0-.2-.3-.4-.4 0zm.8-36.3c.1.5-.1 1.1.4 1.2 0-.2.1-.5.4-.4-.1-.5-.2-.9-.8-.8zm-.8 178.8c0-.2-.3-.4-.4 0 0 .2.3.5.4 0zm-2.7-44.8h1.2c.1-.7-.4-.9-1.2-.8v.8zm1.2 56c.1.1.6-.2.4-.4-.2-.1-.6.2-.4.4zm.7 69.9c-.5 0-.5-.5-1.2-.4-.5 1 1.4 1.2 1.2.4zm0-71.8c-.9 1.3 1.3-.9 0 0zm4.7-240.2c0-.4-.7-.5-.8 0 .1.5.4.3.8 0zm0 302h-.8v.8h.8v-.8zm-2-97c-.8.8 0 1.3.8 1.5.1-.8-.1-1.4-.8-1.5zm.8-40.9c-.4 2.3 1.7.2 0 0zm1.2 4.6c-.1-.1-.6.2-.4.4.1.1.6-.1.4-.4zm-.4-106.1c-.5.3-.1.4.4 0 .4-.4.1-.3-.4 0zm203.8 63.7c-.1-.1-.6.2-.4.4.1.1.6-.2.4-.4zm-.4-195.8c.1.1.6-.2.4-.4-.1-.1-.6.2-.4.4zm-2.7 239.8c.1.1.6-.2.4-.4-.1-.1-.6.2-.4.4zm.4-226.3c-.1-.1-.6.2-.4.4.1.1.6-.2.4-.4zm2.8 304.7v-.4c-.1.1-.3.2-.2.4h.2zm-2-188.4c-.1-.1-.6.2-.4.4.1 0 .6-.3.4-.4zm-16.6-51.4c-.1-.1-.6.2-.4.4.1.1.6-.2.4-.4zm-1.6 123.6c.3-.1.8 0 .8-.4-.3.1-.8 0-.8.4zm-.4-193.9c.3-.1.8 0 .8-.4-.3.1-.8 0-.8.4zm3.1 303.5c0-1.8-2-1.9-2.3-.4.5.5 1.4.5 2.3.4zm-2.7-63.7c0-.2-.3-.4-.4 0 0 .2.3.4.4 0zm1.6 149.1c.1-1.2-1.3-.8-1.9-1.2-.1 1.1.9 1.1 1.9 1.2zm6.5-272.3c.1.1.6-.2.4-.4-.1-.1-.6.2-.4.4zm-5-17c0-.4-.7-.5-.8 0 .5 0 .6.6.8 0zm5.4-15.4c-.1-.1-.6.2-.4.4.1.1.6-.2.4-.4zm.4 78.8c-.3.1-.8 0-.8.4.3-.1.8-.1.8-.4zm-.8 128.2c.1.1.6-.2.4-.4-.1-.1-.6.2-.4.4zm-12.3-153.3c.3-.1.8 0 .8-.4-.4.1-.8 0-.8.4zm0-1.6c.1.1.6-.2.4-.4-.2-.1-.6.2-.4.4zm-.8-30.1h.8v-.8h-.8v.8zm.4 152.1c-.1-.1-.6.2-.4.4.1.1.6-.2.4-.4zm-.8-290.7c-.1-.1-.6.2-.4.4.1.1.6-.2.4-.4zm.4 362.9h-.8v.8h.8v-.8zm3.1-163.3c0 .7.3 1 .8 1.2 0-.7-.3-1-.8-1.2zm.4-48.3c-.1-.1-.6.2-.4.4.1.1.6-.2.4-.4zm-.4 176.1c.1.1.6-.2.4-.4-.1-.1-.6.2-.4.4zm6.2-200.4c-1 1.3 1.3-.9 0 0zm8.5 286.9c-.6-.1-.7-.6-1.2-.8v1.2h.8c.2 0 .4-.1.4-.4zm-.4-142.1c0-.2-.3-.4-.4 0 0 .2.3.5.4 0zm-.8-216.2c.1.1.6-.2.4-.4-.1-.1-.6.2-.4.4zm-1.9 135.1h-1.5v.8c.6-.1 1.9.4 1.5-.8zm9.6 137.1c-.3.1-.8 0-.8.4.3-.1.8 0 .8-.4zm-5-70.7c.4 0 .6.6.8 0 0-.3-.7-.4-.8 0zm-.4 145.6c.1-.9-.1-1.5-.8-1.5-.6.5-.4 1.7.8 1.5zm-3.9-75.3c-.1-.1-.6.2-.4.4.2.1.7-.2.4-.4zm-5-162.9c0 .5-.2.8-.4 1.2.7-.2 1.6-.2 1.9-.8-.7 0-.8-.5-1.5-.4zm.4 44.8c.1-.5.7-.9 0-1.2 0 .5-.7.9 0 1.2zm-1.5-69.5c.1.1.6-.2.4-.4-.2-.1-.6.2-.4.4zm14.6 273.3c-.1-.1-.6.2-.4.4.2.1.6-.2.4-.4zM854-453.5c-.1-.1-.6.2-.4.4.1.1.6-.2.4-.4zm84.1-200c-.5.1-1.1-.1-1.2.4.5-.1 1.2 0 1.2-.4zM876.8-545c-.1-.6.1-1.4-.4-1.5-.5.4-.5 1.4.4 1.5zm.4-280c0-.2-.3-.4-.4 0 0 .2.3.5.4 0zm.3 303.1c-.3.1-.8 0-.8.4.4-.1.8 0 .8-.4zm-2.3 71.9c-.1-.1-.6.2-.4.4.1.1.6-.2.4-.4zm2-359.9c0 .2.3.4.4 0-.1-.2-.4-.4-.4 0zm-2.7 229.7c.5.1.9.7 1.2 0-.5 0-1-.7-1.2 0zm0 5.4c-.1.2.6.8.8.8.9-.3-.3-2.2-.8-.8zm2.3-18.9c-.3-.9-2.2-.1-3.1-.4-.1.9.1 1.5.4 1.9.9-.4 2.6-.1 2.7-1.5zm-1.2-152.1c-.9 1.3 1.3-.9 0 0zm2.7 104.6c0-.2-.3-.4-.4 0 0 .2.3.5.4 0zm-.4 144.8h.8v-.8h-.8v.8zm-3.4-34c-.4 0-.6-.6-.8 0 0 .4.7.5.8 0zm3.8-106.9c0 .2.3.4.4 0 0-.2-.3-.5-.4 0zm-.4-217c-.1 1.2 1.4.9 1.9 1.5.2-2-1.3-.9-1.9-1.5zm1.2 395c-.3.1-.8 0-.8.4.3-.1.8 0 .8-.4zm-.8-74.1c0-.2-.3-.4-.4 0 0 .2.3.4.4 0zm0-38.3c.1.1.6-.2.4-.4-.1-.1-.6.2-.4.4zm-3.1 128.2v-1.2c-.7 0-1.2.1-1.5.4-.4 1.2.8.7 1.5.8zm15.1-92.6v-.8h-.8v.8h.8zm-5.8 27.4c.1.1.6-.2.4-.4-.1-.1-.6.2-.4.4zm3.1-152.6c-.3.1-.8 0-.8.4.3-.1.8 0 .8-.4zm-.8 217.4c.1.1.6-.2.4-.4-.1-.1-.6.2-.4.4zm-2.7-69.8v1.2h.8c0-.5.5-.5.4-1.2h-1.2zm-2.3-73.4h-.8v.8h.8v-.8zm11.9 7.7c-.1-.1-.6.2-.4.4.2.1.7-.2.4-.4zm-14.2-264.5c-.3.1-.8 0-.8.4.3-.1.8 0 .8-.4zm1.9 273.4v1.2c1.1.5 1.1-1.8 0-1.2zm4.2-64.9c.1.1.6-.2.4-.4-.1-.1-.6.2-.4.4zm.4-5.4c-.1-.1-.6.2-.4.4.2.1.6-.2.4-.4zm-3.1-212.7c-.9 1.3 1.3-1 0 0zm3.5-2.4c-.3.1-.8 0-.8.4.3-.1.8 0 .8-.4zm2.7 20.1c-2.5-.4-.8 1.2 0 0zm-4.2 281.5c0-.2-.3-.4-.4 0 0 .2.3.4.4 0zm-2.7-130.5v.8h1.2c0-.7-.5-.9-1.2-.8zm.4 198.5c0 .5-.5.5-.4 1.2h.8c.4-.6.4-1-.4-1.2zm.3-280.4c.1.1.6-.2.4-.4-.1-.1-.6.2-.4.4zm-.3 261.8c.2 0 .5.1.4.4h.8c.5-.9-1.4-1.1-1.2-.4zm1.5-328.9c0 .2-.1.5-.4.4v.8c1 .5 1.1-1.4.4-1.2zm.8 313.5c-2-1.1-1.5 1.3 0 0zM869-708.4c-.5-.1-.9-.7-1.2 0 .5.1 1 .7 1.2 0zm-13.1-3.8c-.3.1-.8 0-.8.4.4-.1.8 0 .8-.4zm-.7-29c-.1-.1-.6.2-.4.4.1.1.5-.2.4-.4zm24.7-75.3c-.1-.1-.6.2-.4.4.1.1.6-.2.4-.4zm-22.8 101.6c-.1-.3-1-.5-1.2 0-.2.9 1.5.8 1.2 0zm-.4 8.5c-.3.1-.8 0-.8.4.3-.1.8-.1.8-.4zM855.2-469c-.3.1-.8 0-.8.4.3-.1.7 0 .8-.4zm0-344.4c-.3.1-.8 0-.8.4.3-.1.7 0 .8-.4zm-.4-6.5c.5-.5.5-1.4-.4-1.5 0 .5-.2 1.3.4 1.5zm-.4 353.3c.1.1.6-.2.4-.4-.1-.1-.6.2-.4.4zm7.3-280.4c0 .2.3.4.4 0 0-.2-.3-.4-.4 0zm-.4-113.1c-.1-.1-.6.2-.4.4.1.1.6-.2.4-.4zm.4 166.4c-.3.1-.8 0-.8.4.3-.1.8 0 .8-.4zm0-177.6c-.1.4-.6.4-1.2.4v1.9c2.1.8 2.7-2 1.2-2.3zm-2.3 30.1c-.1-.1-.6.2-.4.4.1.1.6-.2.4-.4zm-1.2 164.1c.3-.1.8 0 .8-.4-.3.1-.8 0-.8.4zm2.4 110.1c.3-1.3-1.5-1.5-1.5-.4.6-.1.8.4 1.5.4zm4.2-178.8c.7 0 1-.3 1.2-.8-.6 0-1.4 0-1.2.8zm1.5 147.9c-.1-.1-.6.2-.4.4.2.1.6-.2.4-.4zm27.1-107c-.1-.1-.6.2-.4.4.1.1.6-.2.4-.4zm-13.5 256.4c.1.1.6-.2.4-.4-.2-.1-.6.2-.4.4zm-13.2-44.8c-.3.1-.8 0-.8.4.4-.1.8 0 .8-.4zm13.5-179.5c-.1-.1-.6.2-.4.4.2.1.6-.2.4-.4zm-7.3 79.5c.1.1.6-.2.4-.4-.1-.1-.6.2-.4.4zM871-567c-.1-.1-.6.2-.4.4.1.1.6-.2.4-.4zm-.4-22.8h-.8v.8h.8v-.8zm-.4-136.3h-.8v.8h.8v-.8zm-.4 181.5c.1.1.6-.2.4-.4-.1-.1-.6.2-.4.4zm-.4-270.7c-.1-.1-.6.2-.4.4.2.1.6-.2.4-.4zm2.7 106.6c-.9-.1-.9-1.2-1.5-1.5-.1.3-.3.4-.8.4-.1.7.4.9.4 1.6.6-.4 2 .3 1.9-.5zm-4.6 167.1c.1.1.6-.2.4-.4-.1 0-.6.3-.4.4zm1.2-187.6c-.1-.1-.6.2-.4.4.1.1.6-.2.4-.4zm1.1-9.7v.8h1.2c0-.7-.4-.9-1.2-.8zm44 49.5c0 .4.7.5.8 0-.4 0-.6-.6-.8 0zm-.4-130.5h.8v-.8h-.8v.8zm1.6 333.6c-.5 0-.5-.5-1.2-.4v1.2h.8c0-.4.3-.5.4-.8zm.8-338.7c-.1-.1-.6.2-.4.4.1.1.6-.2.4-.4zm-.4 303.5h-.8v.8h.8v-.8zm-.4-212.7c-1 1.3 1.3-1 0 0zm8.5-106.2c-.1-.1-.6.2-.4.4.1.1.6-.2.4-.4zm-1.2 30.9c-1.5-1.4-.9 1.2 0 0zm.8 285.3c.1.1.6-.2.4-.4-.1-.1-.6.2-.4.4zm-.4-181.1c-.1.8.3 1.2 1.2 1.2 0-.9-.4-1.2-1.2-1.2zm-3.5 54.9c0-.2-.3-.4-.4 0 0 .2.4.4.4 0zm-.4 3.8c.1.1.6-.2.4-.4-.1-.1-.6.2-.4.4zm.4-222.8c-.1-.1-.6.2-.4.4.1.1.6-.2.4-.4zm-1.1 99.3c.3-.1.8 0 .8-.4-.4.1-.8 0-.8.4zm.4 249v1.2c1.1.5 1.1-1.8 0-1.2zm-1.6-95.4c-.3.1-.8 0-.8.4.3-.1.8 0 .8-.4zm.4-69.9c1.1.5 1.7-1.6.8-1.9-.2.8-.9 1-.8 1.9zm5-76.4c-.1-.1-.6.2-.4.4.1.1.6-.2.4-.4zm7.3 308.1v.8c.4 0 .5.3.8.4 0-.6.1-1.4-.8-1.2zm8.9-239.8c-1.1-.1-2.1 0-1.9 1.2.9-.1 1.7-.4 1.9-1.2zm-6.9 106.6c-.1-.1-.6.2-.4.4.1.1.6-.2.4-.4zm-1.2 70.3c1.3 1.2 1.2-1.4 0 0zm1.9-186.5v.8h1.2c.1-.7-.4-.9-1.2-.8zm2.8 224.3c0 .2.3.4.4 0-.1-.2-.4-.4-.4 0zm3.8-208.9c-.4 0-.6-.6-.8 0 0 .4.7.5.8 0zm-7.7 93.5h-.8c0 .4-.3.5-.4.8.6-.1 1.4 0 1.2-.8zm0-130.9c0 .4-.3.5-.4.8.4 0 .5.3.8.4 0-.4.3-.5.4-.8-.4 0-.5-.3-.8-.4zm-6.2 144c-.4 0-.6-.6-.8 0 0 .4.7.5.8 0zm-.8 98.5c.1.1.6-.2.4-.4-.1-.1-.6.2-.4.4zm1.2-283.1c0 .2.3.4.4 0 0-.2-.3-.4-.4 0zm.8-20.4c.1.1.6-.2.4-.4-.1-.1-.6.2-.4.4zm-5.4 1.5c.1.1.6-.2.4-.4-.2-.1-.6.2-.4.4zm6.9 178v-.8h-.8v.8h.8zm-25.5-13.5c-.3.9 1.5.8 1.2 0-.1-.3-1-.5-1.2 0zm3.1-9.3h.8v-.8h-.8v.8zm-.4-195.7c.1.6-.1 1.4.4 1.5.5-.5.5-1.4-.4-1.5zm3.9 206.9c-.1-.1-.6.2-.4.4.1.1.6-.2.4-.4zM910-842h-.8v.8h.8v-.8zm-.8-8.8c0-.2.1-.5.4-.4 0-.5-.1-.9-.8-.8.1.5-.1 1.1.4 1.2zm-3.9 178.4c-.9 1.2 1.3-1 0 0zm-1.1 192.6c.1-.7-.4-.8-.4-1.5-.9-.1-1.5.1-1.9.4v1.2c1.2.4.8 0 2.3-.1zm6.5-304.6h-1.2c.1.5-.1 1.1.4 1.2.1-.7 1-.4.8-1.2zm1.2 232.8c-.3.1-.8 0-.8.4.3-.1.8 0 .8-.4zm-20.1-52.1c.1.1.6-.2.4-.4-.1-.1-.6.2-.4.4zm19.3 131.6c.1.1.6-.2.4-.4-.1 0-.6.3-.4.4zm-1.5-298.4c.1.1.6-.2.4-.4-.1-.1-.6.2-.4.4zm1.5 110c0-.4-.7-.5-.8 0 .5 0 .7.6.8 0zm8.5-122.4c-.4 2.3 1.7.2 0 0zm-23.5 216.3c0 .2.3.4.4 0 0-.3-.4-.5-.4 0zm.4-284.6c-.7 0-1 .3-1.2.8.7 0 1-.4 1.2-.8zm1.1 358.7v-.8h-.8v.8h.8zm7.3 5.8c.7-.2 2.3.5 1.9-.8h-1.9v.8zm15.5 27c-.1-.1-.6.2-.4.4.1.1.6-.2.4-.4zM908-796c-.4.6-1 .9-1.5.4-.4 1.3.5 1.3 1.5 1.2-.3-.8 1.2-1.4 0-1.6zm-11.9-79.2c-.3.1-.8 0-.8.4.3-.1.8 0 .8-.4zm-.4 359.5c.1 1.4 1.6 1.5 2.3 2.3.1-1.6-1.1-2-2.3-2.3zm2.7-211.6c.3-.1.8 0 .8-.4-.3.1-.8 0-.8.4zm.8-46.7c0 .2.3.4.4 0-.1-.2-.4-.4-.4 0zm0 302.7c-.3.1-.8 0-.8.4.3-.1.7 0 .8-.4zm3.8-73.3c-.1-1.9-1.1-.4-2.3-1.2-.1 1.3 1.7.6 2.3 1.2zm-3.1 28.5c.1.1.6-.2.4-.4-.1-.1-.6.2-.4.4zm2-161.8c.6-1.2-.3-2-1.2-2.7.3 1.2-1.1.7-.8 1.9.8.2.7 1.2 2 .8zm-3.9 6.2c-.1-.1-.6.2-.4.4.1.1.6-.2.4-.4zm.4-21.6c-.3.1-.8 0-.8.4.3-.1.8 0 .8-.4zm4.6 18.5c0 .2-.1.5-.4.4v.8c1 .6 1.2-1.3.4-1.2zm-6.2-68.7c.3-.1.8 0 .8-.4-.3.1-.8 0-.8.4zM634-532.3c-.1-.1-.6.2-.4.4.1.1.6-.2.4-.4zM513.9-530c-1-.1-1.9-.1-1.9.8.7-.2 2.3.5 1.9-.8zm-.7-14.6c1.7 0 .5-.9 1.2-1.5-1.3-.4-.6 1.2-1.2 1.5zm.3 89.9c.1.1.6-.2.4-.4-.1-.1-.6.2-.4.4zm-1.5 15.9c.1.1.6-.2.4-.4-.1-.1-.6.2-.4.4zm.4-124.4c-.1-.1-.6.2-.4.4.1.1.6-.2.4-.4zm7.7 93.5c1.8-.9 2.2-3.2 1.2-5-1.7.1-1.8.1-2.7.4-.9 1 .6 1.9 1.2 2.7-.6.4-.7 1.8.3 1.9zm3.1-347.5c1.3.5 1.6-2 .8-2.3.1 1.1-.9 1.1-.8 2.3zm-8.9 24.3v.8c.4 0 .5.3.8.4 0-.7 0-1.4-.8-1.2zm3.1 180.3c.4 0 .6.6.8 0 0-.4-.7-.5-.8 0zm-1.9-5c.5.5 1.4.5 1.5-.4-.5-.5-1.4-.5-1.5.4zm5 91.5c0-.2-.3-.4-.4 0 0 .2.3.4.4 0zm-1.9-151c-.1.8.3 1.2 1.2 1.2 0-.9-.4-1.3-1.2-1.2zm.7 134.8c-.1.5-.6.7-.4 1.5h1.2c-.1-.7.4-1.9-.8-1.5zm-3.4-150.2v1.2c1.1.5 1.1-1.8 0-1.2zm-.8-174.2c-.1-.1-.6.2-.4.4.1.1.6-.2.4-.4zm2.7 192.3c0 .2.3.4.4 0 0-.2-.3-.4-.4 0zm-.4-4.6c1 .1 1.7-.1 1.5-1.2-1-.1-1.6.2-1.5 1.2zm1.5 61c-.5-.1-.7-.5-1.5-.4-.6 1.1 1.7 1.1 1.5.4zm-4.2 93.8c-.1-.1-.6.2-.4.4.1.1.6-.2.4-.4zm.8 34h-.8v.8h.8v-.8zm12.7-103.1c.1.1.6-.2.4-.4-.1-.1-.6.2-.4.4zm-1.9 1.5c0 .2.3.4.4 0 0-.2-.3-.4-.4 0zm-.8 95.8c.1.1.6-.2.4-.4-.1-.1-.6.2-.4.4zm2.3-288.8c.3-.1.8 0 .8-.4-.3.1-.8 0-.8.4zm-.4 125.9c.4 0 .6.6.8 0 0-.4-.7-.5-.8 0zm-.7-3.5c-.1-.1-.6.2-.4.4.1.1.6-.2.4-.4zm6.5 106.9c-.9 1.3 1.3-.9 0 0zm0-30.5c0 .6-1 .3-.8 1.2h1.2c0-.5.1-1.1-.4-1.2zm-6.1-55.9v.8h1.2c0-.8-.5-1-1.2-.8zm1.5 84.9c-.4 0-.5-.3-.8-.4 0 .4-.3.5-.4.8.4 0 .5.3.8.4 0-.4.3-.5.4-.8zm-5.4 20.5c-.3.1-.8 0-.8.4.3-.1.8-.1.8-.4zm6.2-285c.1.1.6-.2.4-.4-.1-.1-.6.2-.4.4zm-1.2 312.4c-.3.1-.8 0-.8.4.3-.1.8 0 .8-.4zm-.8-138.6c-.1-.1-.6.2-.4.4.2.1.6-.2.4-.4zm1.6 162.5c-.1-.1-.6.2-.4.4.1.1.6-.2.4-.4zm-1.6-176.4c-.3.1-.8 0-.8.4.4-.1.8-.1.8-.4zm0-62.2c-.1-.1-.6.2-.4.4.2.1.6-.2.4-.4zM502-646.2c.3-.1.8 0 .8-.4-.4.1-.8 0-.8.4zm-8.9 115.5h-1.2v1.2h.8c0-.6.5-.6.4-1.2zm2.3-197.4c0-.2.1-.5.4-.4 0-.5-.1-.9-.8-.8.1.5 0 1.2.4 1.2zm-1.2 132.9c-1 .5-1.4 1.4-1.2 3.1 1.6.3 2.2-2.3 1.2-3.1zm-1.1 14.6c0 .2.3.4.4 0 0-.2-.3-.4-.4 0zm6.5 106.6c-.1-.1-.6.2-.4.4.2.1.6-.2.4-.4zm0-127.8c-.1-.1-.6.2-.4.4.2.1.6-.2.4-.4zm-.7 67.2c0 .2.3.4.4 0 0-.2-.3-.4-.4 0zm-1.2 5.4c.1.1.6-.2.4-.4-.1-.1-.6.2-.4.4zm2.7 1.6c.1-.5.7-.9 0-1.2 0 .4-.7.9 0 1.2zm-8.5-73c-.1-.1-.6.2-.4.4.1.1.6-.2.4-.4zm3.9 124.7c-.1-.1-.6.2-.4.4.1.1.6-.2.4-.4zm1.5 6.9h-.8c0 .5-.5.5-.4 1.2h1.2v-1.2zm-.7-49.4c-.1-.1-.6.2-.4.4.1.1.6-.2.4-.4zm.7 75.7v-.8h-.8v.8h.8zm.4-264.5h.8v-.8h-.8v.8zm-2.3 185.3h-.8v.8h.8v-.8zm-.4-252.9h-1.2c-.1.8.3 1.2 1.2 1.2v-1.2zm0 51.4c-.1-.1-.6.2-.4.4.1.1.6-.2.4-.4zm-1.1-102.7c.7 0 1-.3 1.2-.8-.7 0-1.4 0-1.2.8zm3.4 193.8c-.2 0-.5-.1-.4-.4h-.8c.6 1.5-1 .8-1.2 1.5.8.7 1.9-.4 2.4-1.1zm-1.9 182.6c-.1-.1-.6.2-.4.4.1.1.6-.2.4-.4zm13.5-149c.1.1.6-.2.4-.4-.1-.1-.6.2-.4.4zm-.4-95.4c0-.2-.3-.4-.4 0 0 .2.4.5.4 0zm2 82.7c-1.3-1.2-1.2 1.4 0 0zm-2.4-38.7c.1.1.6-.2.4-.4-.1 0-.6.2-.4.4zm12.8 64.1c.1.1.6-.2.4-.4-.1 0-.6.2-.4.4zm-10.1-278.4c.1.1.6-.2.4-.4-.1 0-.6.2-.4.4zm10.5 31.3c-.1-.1-.6.2-.4.4.1.1.6-.2.4-.4zm-15.9 249.8c0-.7-.3-1-.8-1.2-.5.7-.5 1.6.8 1.2zm-1.5 96.6c0-.4-.7-.5-.8 0 .1.4.5.2.8 0zm1.2-58.3c-.1.5-.5.7-.4 1.5 1.3.3 1.5-1.5.4-1.5zm-3.1 50.6c.3-.1.8 0 .8-.4-.4.1-.8 0-.8.4zm30.8-197.4c-.1-.1-.6.2-.4.4.2.1.6-.2.4-.4zm-28.5 111.6c-.1-.1-.6.2-.4.4.1.1.6-.2.4-.4zm-3.5-24.3c-2.7.7-2.6-1.3-4.6-1.2.4 1.2 1.4 1.7 1.2 3.5 1.5-.3 2.9.6 3.5 0-.1-.7-.1-1.5-.1-2.3zm5 125.1c-.1-.3-1-.5-1.2 0-.2.9 1.6.8 1.2 0zm-.7-304.6c-1.4-.2-2.3.3-2.3 1.5 1.3.1 2.6.1 2.3-1.5zm-2 111.2c0 .2.3.4.4 0 0-.2-.3-.5-.4 0zm66.8 227c-.1-.1-.6.2-.4.4.1.1.6-.2.4-.4zm-9.7-201.5c0-.4-.7-.5-.8 0 .2.4.5.2.8 0zm-2.7-203.2c-.5.5-.5 1.4.4 1.5.5-.4.5-1.3-.4-1.5zm0 37.5c.9.1 1.5-.1 1.9-.4v-1.2c-1.1-.9-2.8.3-1.9 1.6zm2-32c-.1-.1-.6.2-.4.4.1 0 .6-.2.4-.4zm-2 84.5c.1-.5.7-.9 0-1.2 0 .5-.6.9 0 1.2zm.8 5.8c.1.1.6-.2.4-.4-.1-.1-.6.2-.4.4zm.8 43.6c0 .2.3.4.4 0 0-.2-.3-.4-.4 0zm10.4 94.6h-.8v.8h.8v-.8zm-1.1 25.1c-.5 2.3 1.6.2 0 0zm-69.9-175.3c1.2 1.1-1.1-1.1 0 0zM562.2-491c-.1-.1-.6.2-.4.4.1.1.6-.2.4-.4zm-.8-53.6c-.6.6-.8 1.5-.8 2.7 1.7.4 3-2.7.8-2.7zm-2.7-310.9c-.1-.1-.6.2-.4.4.1.1.6-.2.4-.4zm3.1 384.2c.1-.5.7-.9 0-1.2-.1.5-.7.9 0 1.2zm-1.6-155.6v-1.5h-1.5c-.3 1.3.2 1.8 1.5 1.5zm3.1 20.9c-.5 0-.4-.7-.8-.8-.1.7-1.3.2-1.5.8v2.3c.9-.2.8.7 1.9.4.3-1.5-2.1-.3-1.5-1.9.8-1 1.7.6 1.9-.8zm-3.1 75.6c-.1-.1-.6.2-.4.4.2.1.7-.2.4-.4zm3.9 42.9h.8v-.8h-.8v.8z"/><path class="st2" d="M563.3-603.7c.5 1.5-2.8 1-1.2 2.3.1-1 2.6-1.3 1.2-2.3zm-6.1-96.9c-1.2 1.3 1.4 1.1 0 0zm3.4 154.8c-.1-.1-.6.2-.4.4.2.1.6-.2.4-.4zm-3.4 95c.1.1.6-.2.4-.4-.2-.1-.6.2-.4.4zm.7-71.4c0 .2.3.4.4 0 0-.3-.3-.5-.4 0zm-.7-38.3v.8h1.2c0-.7-.5-.9-1.2-.8zm.7 43.3c-.3 2.3 1.8.2 0 0zm.4 53.6v.8c.4 0 .5.3.8.4 0-.6 0-1.3-.8-1.2zm8.5-222c1-.3-.2-2.2-.8-.8-.1.3.6.9.8.8zm5.8-49.4h-.8v.8h.8v-.8zm-1.2 243.3c-.6.9-.8.7-.4 1.9 1.3.1 1.6-1.9.4-1.9zm2-362.6c.1.1.6-.2.4-.4-.1-.1-.6.2-.4.4zm.4-13.5c-.1.5-.7.9 0 1.2 0-.5.6-.9 0-1.2zm-3.1 140.1c-.1-.1-.6.2-.4.4.1.1.6-.2.4-.4zm6.1 11.2c.6-.9-1.3-1.1-1.2-.4.2 0 .5.1.4.4h.8zm-6.1 76.9c-.1-.1-.6.2-.4.4.1.1.6-.2.4-.4zm-.4 102.7c.1.1.6-.2.4-.4-.1-.1-.6.2-.4.4zm-37.5 0h-.8c0 .4-.3.5-.4.8.7-.1 1.4 0 1.2-.8zm32.5-218.6c.1.5.4.2.8 0-.1-.4-.7-.5-.8 0zm-.8 234c-1.4 1.8 2.3.5 0 0zm8.9-191.9c0 .2.3.4.4 0 0-.2-.4-.4-.4 0zm-5.8 144c-.9 1.3 1.3-.9 0 0zm.8-48.6c-1 1.3 1.3-.9 0 0zm4.6 170.7c.7 0 1-.3 1.2-.8-.7 0-1.4-.1-1.2.8zm-2.3-328.6c-.1-.1-.6.2-.4.4.1.1.6-.2.4-.4zm-28.2 293.8h-.8v.8h.8v-.8zm-5 42.9h.8v-.8h-.8v.8zm.4-15.5c-.2.2-.4-.1-.4.4.2 1.8 2.2-2.2.4-.4zm1.5-368.7c-.3.1-.8 0-.8.4.3-.1.8 0 .8-.4zm5.4 121.2c-.1-.1-.6.2-.4.4.1.1.6-.2.4-.4zm-10.4 215.9c.1.1.6-.2.4-.4-.1-.1-.6.2-.4.4zm9.6-103.9c0 .2-.1.5-.4.4v.8c1 .6 1.2-1.4.4-1.2zm-1.5-3.5c-.1-.1-.6.2-.4.4.1.1.6-.2.4-.4zm0 152.9c-2.5-.4-.9 1.2 0 0zm.4-63.7c-.1-.1-.6.2-.4.4.1.1.6-.2.4-.4zm-7.4-139.8c0-.4-.7-.5-.8 0 .2.5.5.3.8 0zm-4.2 105.8c-.1-.1-.6.2-.4.4.1.1.6-.2.4-.4zm0 33.2c-.9 1.3 1.3-.9 0 0zm9.3 44.5c.1.5.4.2.8 0-.1-.4-.7-.5-.8 0zm-8.5-18.2h.8v-.8h-.8v.8zm5-340.2c-.7 0-1.2.1-1.5.4 0 .5.2.9.4 1.2.9.1 1.2-.6 1.1-1.6zm-1.6 346.4c.1-.9-.1-1.5-.8-1.5-.5.5-.4 1.7.8 1.5zm2-248.3c-.1-.1-.6.2-.4.4.1.1.6-.2.4-.4zm0 103.5c-.3 2.3 1.7.2 0 0zm-.4-235.9c-.1-.1-.6.2-.4.4.1 0 .6-.2.4-.4zm17.4 43.2h-.8v.8h.8v-.8zm-.4 155.6c0-1.4-.4-1.1 0-2.3-1.7-.2-1.3 1.8-1.9 2.7.9.2.8-.7 1.9-.4zm0 68c-.1-.1-.6.2-.4.4.1.1.6-.2.4-.4zm-3.1 40.5c-.1-.1-.6.2-.4.4.1.1.6-.2.4-.4zm-.8 52.5h.8v-.8h-.8v.8zm.4-91.1c.2 0 .5.1.4.4h.8c.6-1-1.4-1.1-1.2-.4zm1.9-187.7c-.1-.1-.6.2-.4.4.2.1.6-.2.4-.4zm-.4 284.6c-.1-.1-.6.2-.4.4.2.1.6-.2.4-.4zM546-625.3c.5 0 .8.2 1.2.4.1-1.3-1.1-1.5-1.2-.4zm.4 132.4h-.8v.8h.8v-.8zm9.6-95.4c.1.5-.1 1.1.4 1.2 0-.2.1-.5.4-.4-.1-.5-.1-.9-.8-.8zm-9.6 144.8c0-.2-.3-.4-.4 0 0 .2.3.5.4 0zm.3-34c-.1-.1-.6.2-.4.4.2.1.6-.2.4-.4zm2.7-174.1c0 .2.3.4.4 0 0-.2-.3-.4-.4 0zm-1.5 4.3c0-.2-.3-.4-.4 0 0 .2.3.4.4 0zm.4-164.5c-.1-.1-.6.2-.4.4.1.1.6-.2.4-.4zm-.8 236.3c.1.1.6-.2.4-.4-.1-.1-.6.2-.4.4zm143.2 114.3c.1.1.6-.2.4-.4-.1-.1-.6.2-.4.4zM478-520.7c-.9 1.3 1.3-.9 0 0zm0-353.3c-.3.1-.8 0-.8.4.4-.1.8 0 .8-.4zm.4 368c-.1-.1-.6.2-.4.4.1.1.6-.2.4-.4zm5.8-302c-.1-.1-.6.2-.4.4.1.1.6-.2.4-.4zm-7.4 286v.3s0-.1.1-.2l-.1-.1zm.8-195.6h-.8v.8h.8v-.8zm6.6-157.6c-.1-.1-.6.2-.4.4.1.1.6-.2.4-.4zm-6.9 274.6c-.1-.1-.6.2-.4.4.1.1.6-.2.4-.4zm0 67.2c-.1 0-.3 0-.4.1v.3c.1-.1.4-.2.4-.4zm-.5-202.8c.1-.1.1-.2 0-.1v.1zm12.8 3.1c.1.1.6-.2.4-.4-.1-.1-.6.2-.4.4zm.8-61c-.1-.1-.6.2-.4.4.1.1.6-.2.4-.4zm-1.2 64.5c0 .2.3.4.4 0 0-.2-.3-.4-.4 0zm2 276.5h-.8v.8h.8v-.8zm-2.7-135.2h.8c0-.5.5-.5.4-1.2h-1.2v1.2zm2.3 4.3v-1.2c-.7-.1-.9.4-1.5.4-.5 1.2.8.7 1.5.8zm-2.7-171.5c0-.2-.3-.4-.4 0 0 .2.3.5.4 0zm-1.2 237.9c0 .4-.3.5-.4.8.6 0 1.3 0 1.2-.8h-.8zm-3.1-63.7c-.8-1.2-2.5-.8-2.3 1.2 1.3.6 1.7-.3 2.3-1.2zm-1.5-58.7c-1.2-.2-1.6.5-1.9 1.2.7.7 2.3.3 1.9-1.2zm1.1 32.4c0-.2-.3-.4-.4 0 0 .2.4.5.4 0zM485-842c-1 1.3 1.3-.9 0 0zm-2.7 280.4h.8v-.8h-.8v.8zm3.8-97.3h-.8v1.5h.8v-1.5zm-5.4-153.3h-.8v.8h.8v-.8zm-.4 266c-.4 2.3 1.7.2 0 0zm-.7-181.1c0 .2.3.4.4 0 0-.2-.3-.4-.4 0zm6.5 275.7h-.8v.8h.8v-.8zm13.2-262.5c-1 1.2 1.3-1 0 0zM669.1-557c0-.2-.3-.4-.4 0 0 .2.3.4.4 0zm.4-14.7c-.1-.1-.6.2-.4.4.1.1.6-.2.4-.4zm0 46.8c-.1-.1-.6.2-.4.4.1 0 .6-.2.4-.4zm3.1 61c.1.1.6-.2.4-.4-.1-.1-.6.2-.4.4zm-3.1-397.8c-.6 0-1.3-.1-1.2.8.7 0 1-.3 1.2-.8zm0 63.4c-.1.4-.6.4-1.2.4-.1 1 .5 1.3 1.5 1.2 0-.7.2-1.5-.3-1.6zm.8 235.5c-1.4 1.8 2.2.5 0 0zm-2.7 26.7v1.2c1.1.5 1.1-1.8 0-1.2zm4.6 76c-.3.1-.8 0-.8.4.3-.1.8 0 .8-.4zM668.7-623c0-.2-.3-.4-.4 0 0 .2.3.4.4 0zm0-176.5c0-.7-.3-1-.8-1.2 0 .7.3 1 .8 1.2zm1.2 319.3c-.3.1-.8 0-.8.4.3-.1.8 0 .8-.4zm1.1 39.8c0-.4-.7-.5-.8 0 .5 0 .7.6.8 0zm-3.4-401.9c.1.1.6-.2.4-.4-.2-.1-.6.2-.4.4zm5.4 396.9c-1.1-.1-.5-1.8-1.9-1.5-.4 1.2 1.4 2.3 1.9 1.5zm-5.4-46.7c-1 1.3 1.3-1 0 0zm1.1-37.1h-.8c0 .4-.3.5-.4.8.7-.1 1.4 0 1.2-.8zm-3.1-276.1c0-.2-.3-.4-.4 0 0 .2.4.5.4 0zm-.7 122.8c-.1-.1-.6.2-.4.4.1.1.6-.2.4-.4zm1.5 217.4h-.8v.8h.8v-.8zm.8-218.2h-.8v.8h.8v-.8zm.4 158c0-.2-.3-.4-.4 0 0 .2.3.4.4 0zm-1.6-151c-1.4.6-2.2-.4-2.7.8.3.2 2.7.4 2.7-.8zm1.2 130.5c0-.4-.7-.5-.8 0 .4 0 .6.6.8 0zm-3.1 53.3c-.1-.1-.6.2-.4.4.1.1.6-.2.4-.4zm.4-85c.1.1.6-.2.4-.4-.2-.1-.6.2-.4.4zm-.8 65.3c-.9 1.3 1.3-.9 0 0zm0-145.2c0-.2-.3-.4-.4 0 0 .2.3.4.4 0zm10 212.4c-.1-.1-.6.2-.4.4.2.1.6-.2.4-.4zm3.5-150.6c.3-.1.8 0 .8-.4-.3.1-.8 0-.8.4zm-1.2-89.6c.1.1.6-.2.4-.4-.1-.1-.6.2-.4.4zm.4 112c-.3 2.3 1.8.2 0 0zM673-686c-1 1.3 1.3-.9 0 0zm-2 215.1c.9-.2.8.7 1.9.4-.4-.9-.1-2.5-1.5-2.3.3 1.1-.5 1-.4 1.9zm2-161.4c.1 1.6 1.2 1 1.9.8.3-1.4-1.4-1.4-1.9-.8zm.3 84.2c0-.4-.7-.5-.8 0 .2.4.5.2.8 0zm4.3-141c-.1-.1-.6.2-.4.4.1.1.6-.2.4-.4zm-2.7-54c-.1-.1-.6.2-.4.4.1.1.6-.2.4-.4zM683-664v.8h.8v-.8h-.8zm-8.5 40.2c.1-1-.1-1.7-1.2-1.5-.1 1 .2 1.6 1.2 1.5zm12 106.2h-.8v.8h.8v-.8zm.7-67.6c-.1.5-.7.9 0 1.2.1-.5.7-.9 0-1.2zm-1.1-57.5c.9.1 1.4-.1 1.5-.8-.5-.6-1.7-.4-1.5.8zm-.4 67.9c-.1-.1-.6.2-.4.4.1.1.6-.2.4-.4zm-.4 51c-.1-.1-.6.2-.4.4.1.1.6-.2.4-.4zm4.6-37.1c-1.3-1.1-1.1 1.5 0 0zm-2.7 25.9c-.1-.1-.6.2-.4.4.2.1.6-.2.4-.4zm1.6-174.9c-.9 1.3 1.3-.9 0 0zm1.5 255.6c0-.4-.7-.5-.8 0 .5 0 .7.6.8 0zm-3.8-19.3c-.1-.1-.6.2-.4.4.1.1.6-.2.4-.4zm-7.4-4.6c-.3.1-.8 0-.8.4.4-.1.8-.1.8-.4zm-1.1-224c0 .2.3.4.4 0 0-.2-.3-.4-.4 0zm9.2 189.6c-.1-.1-.6.2-.4.4.2.1.6-.2.4-.4zM676-487.5c.4.3 1 .5 1.9.4-.2-1 0-2.3-1.2-2.3 0 .7-1 .7-.7 1.9zm6.2-8.9c-.9 1.3 1.3-.9 0 0zm-7.3-12.3c0-.4-.7-.5-.8 0 .1.4.4.2.8 0zm7.3-14.7c.1-1-.1-1.7-1.2-1.5.2.6-.5 2 .4 1.9.1-.3.4-.5.8-.4zm3.9-80.7c-.3-.6-1-.8-1.9-.8-.5.5-.5 1.8 0 2.3 1.1 0 2.1-.1 1.9-1.5zm-1.9-89.2c.3-.1.8 0 .8-.4-.4.1-.8 0-.8.4zm3-27c0 .2.3.4.4 0 0-.2-.3-.5-.4 0zm-.3 274.1c.1.1.6-.2.4-.4-.2-.1-.6.2-.4.4zm-5.8-23.1c-.1.5-.5.7-.4 1.5 1.3.3 1.5-1.5.4-1.5zm-.4-286.6c-.1.5-.5.7-.4 1.5 1.1.7 1.1-1.6.4-1.5zm1.1 236.7h-.8v.8h.8v-.8zm25.9 34c.2-1.7-1.2-1.9-2.7-1.9v1.5c.5.6 1.7.4 2.7.4zm-.4-183.4c-.4 2.3 1.7.2 0 0zm-6.2 166h-.8v.8h.8v-.8zm-1.5 34.8c-.9 1.3 1.3-.9 0 0zm6.2-317.4c-.1-.1-.6.2-.4.4.1.1.6-.2.4-.4zm-5.4 9.3c-.1-.1-.6.2-.4.4.1.1.6-.2.4-.4zm3.1 83.4h.8v-.8h-.8v.8zm0 188.8h.8v-.8h-.8v.8zm.3-30.5c-.3.1-.8 0-.8.4.4-.1.8 0 .8-.4zm1.6-149.4v-.8c-.7-1.3-1.9 1.1 0 .8zm.4 43.2c-1-.1-1.9-.1-2.3.4-.3 1.4 2.9.9 2.3-.4zm-3.5-158.7c.1.1.6-.2.4-.4-.1-.1-.6.2-.4.4zm-.4 188.8c1.3 1.2 1.2-1.4 0 0zm.4-18.9c.1.5-.1 1.1.4 1.2 0-.2.1-.5.4-.4-.1-.5-.1-.9-.8-.8zm.8-196.5c.4 0 .6.6.8 0-.1-.4-.7-.5-.8 0zm-3.5 153.3h-.8v.8h.8v-.8zm-7-164.2c.1.1.6-.2.4-.4-.1 0-.6.2-.4.4zm.4 164.9c-.1-.1-.6.2-.4.4.2.1.6-.2.4-.4zm2.7-169.9c-.1-.1-.6.2-.4.4.2.1.6-.2.4-.4zm-4.2 16.6v.8h1.2c0-.7-.4-.9-1.2-.8zm3.8 371.1c-.9 1.3 1.3-.9 0 0zm-1.9-273.8c0-.2-.3-.4-.4 0 0 .3.3.5.4 0zm.4 290.8v-1.5h-1.2c-.1 1 .2 1.6 1.2 1.5zm3.9-354.9v-.8h-.8v.8h.8zm-40.6 135.2c0-.2-.3-.4-.4 0 0 .2.4.4.4 0zm.8 142.5c0-.7-.3-1-.8-1.2-.5.6-.5 1.5.8 1.2zm2.7 68.3c0-2.1-4.2-2-3.9.4 0 .6 1 .3.8 1.2 1.6 0 3.1-.1 3.1-1.6zm13.1 5.8c-1.3-1.2-1.1 1.4 0 0zm-6.5-96.5c-1.3-1.2-1.2 1.4 0 0zm-6.2-336c-.9 1.3 1.3-.9 0 0zm-2.3 306.6c-.6.1-1.4-.1-1.5.4.4.5 1.4.5 1.5-.4zm2.7-264.1c.3.5.4.1 0-.4-.4-.4-.3-.1 0 .4zm-5 27h.8v-.8h-.8v.8zm5.4 130.9c0-.4-.7-.5-.8 0 .1.5.4.3.8 0zm-5.1-173.7c0 .4-.3.5-.4.8.6 0 1.3.1 1.2-.8h-.8zm5.8 396.5c-1.5-1.3-.9 1.3 0 0zm48.7-71c.3-.1.8 0 .8-.4-.4.1-.8 0-.8.4zm-2.7-134.8c-.1-.1-.6.2-.4.4.1.1.6-.2.4-.4zm.4 51.8c-.3.4-.5 1-.4 1.9h1.5c.3-1.3-.3-1.7-1.1-1.9zm2.3-81.5c.1.1.6-.2.4-.4-.1-.1-.6.2-.4.4zm-.4 12c.1-.9 1.3-.7 1.2-1.9-.9-.1-1.5.1-1.9.4-.2.8 0 1.4.7 1.5zm0-163.8c.1.1.6-.2.4-.4-.1 0-.6.2-.4.4zm-9.3 310.1c0-.2-.3-.4-.4 0 0 .2.4.4.4 0zm10.8 12.4c.1.1.6-.2.4-.4-.1-.1-.6.2-.4.4zm-3.1 44c-.4 0-.5-.3-.8-.4-1 .6.6 1.3.8.4zm-8.1-144.4c.3-.1.8 0 .8-.4-.3.1-.8 0-.8.4zm9.7 122.4c0 .2.3.4.4 0 0-.2-.3-.5-.4 0zm-.4-241.7c-.1-.1-.6.2-.4.4.1.1.6-.2.4-.4zm.4 250.9v1.5h1.2c.1-.9-.2-1.6-1.2-1.5zM585-448.5c.1-1-.1-1.7-1.2-1.5-.1.5-.5.7-.4 1.5h1.6zM606.6-779c0 .2.3.4.4 0 0-.2-.4-.5-.4 0zm.4-15.8c-.1-.1-.6.2-.4.4.1 0 .6-.3.4-.4zm-.8 212.7c.1.5-.1 1.1.4 1.2 0-.2.1-.5.4-.4-.1-.5-.2-.9-.8-.8zm.4 25.5h-.8c0 .5-.5.5-.4 1.2h1.2v-1.2zm0-103.1c-.7.2-1.7.1-1.5 1.2.9.1 1.6-.2 1.5-1.2zm-3.5 91.5c-.1-.1-.6.2-.4.4.1.1.6-.2.4-.4zm1.2-262.6c-.1-.1-.6.2-.4.4.1.1.6-.2.4-.4zm-1.2 383.1h-.8v.8h.8v-.8zm-1.9-5.4c1.1 1-1.1-1.2 0 0zm1.5-41c-.1-.1-.6.2-.4.4.1.1.6-.2.4-.4zm1.6-238.6h.2c0-.1.1-.1 0 0 0 .1.1.2.2.4 0 0 1.1.4 1.2.4.2.1.9.8 1.2 0-1.1.3-.6-1.1-1.2-1.5-.3-.2-1.2.2-1.5 0-.1 0 .1-.7 0-.8-.2-.2-1.1 0-1.2-.4-.4.7.4 2 1.1 1.9zm-2 108.9v1.2h.8c0-.4.3-.5.4-.8-.5 0-.9-.2-1.2-.4zm-3.1 103.1c-.9 1.3 1.3-.9 0 0zm.4-140.9c-.3.1-.8 0-.8.4.3-.1.8-.1.8-.4zm.4 61c-.1-.1-.6.2-.4.4.1.1.6-.2.4-.4zm-2.3 7.7c-.4 0-.5-.3-.8-.4-1 .6.6 1.3.8.4zm-.8 111.2c0 .2.3.4.4 0 0-.2-.3-.4-.4 0zm9.3-80.3v1.2c1.1.5 1.1-1.8 0-1.2zm-7.7-275.3c.1-.5 1.6-1.5.4-1.9-.1.6-.8.3-1.2 0-.1.9-.1 1.8.8 1.9zm15.8 172.6c.3-.1.8 0 .8-.4-.3.1-.8 0-.8.4zm-1.2 144c.2.6.5.1 0-.4-.6-.1-.9.4 0 .4zm2.3-132.1c-.1-.1-.6.2-.4.4.2.1.6-.2.4-.4zm.8 158.7h-.8v.8h.8v-.8zm-.4-124.7c-.1-.1-.6.2-.4.4.2.1.6-.2.4-.4zm-3.4-79.9v1.2c1.1.5 1.1-1.8 0-1.2zm.7-163c-1.4 1.9 2.3.6 0 0zm-.7 22.4c.1.1.6-.2.4-.4-.2 0-.6.2-.4.4zm-.4 270.7c0 .4.7.5.8 0-.5.1-.7-.5-.8 0zm-4.3 23.2v1.2c1.2.5 1.2-1.8 0-1.2zM602.3-718c.3-.1.8 0 .8-.4-.3.1-.8 0-.8.4zm9.7 191.5c-.3.1-.8 0-.8.4.3-.1.8 0 .8-.4zm4.6-337.1c0-.2-.3-.4-.4 0 0 .2.3.5.4 0zm-.4 336.7c-.9 1.3 1.3-.9 0 0zm-6.9-90.3c0 .4-.3.5-.4.8.5 0 .5.5 1.2.4 0-.7-.4-1.1-.8-1.2zm.7 3.1v-.8h-.8v.8h.8zm.4-226.7c-.1-.1-.6.2-.4.4.2.1.6-.2.4-.4zM579.9-686c0-.4-.7-.5-.8 0 .5 0 .7.6.8 0zm5.1-68.7c-.7 0-1.2.1-1.5.4-.1 1 .5 1.3 1.5 1.2v-1.6zm-2.4 143.6c-.9 1.3 1.3-.9 0 0zm1.6 149.9c.1.5.4.2.8 0 0-.4-.7-.5-.8 0zm4.2 8.8c-.1-.1-.6.2-.4.4.1.1.6-.2.4-.4zm.4-421.2c-.1-.1-.6.2-.4.4.1.1.6-.2.4-.4zm-6.9 334c.3-.1.8 0 .8-.4-.4.1-.8 0-.8.4zm1.1-104.3c0-.4-.7-.5-.8 0 .1.5.5.3.8 0zm2 124.4h-.8v.8h.8v-.8zm3.4-135.2c0-.4-.7-.5-.8 0 .5 0 .7.6.8 0zm-5 133.6c-.1-.1-.6.2-.4.4.1.1.6-.2.4-.4zm4.6 30.5c.2-1.3-2.3-2-2.3-.8 1.2-.1.9 1.2 2.3.8zm-1.5-29.3c0-.4-.7-.5-.8 0 .5-.1.6.5.8 0zm-1.2-149.5c.1.1.6-.2.4-.4-.1-.1-.6.2-.4.4zm3.1 232.1c-.1-1.5-.9-2.2-1.9-2.7 0 1.5.2 2.9 1.9 2.7zm4.7-43.2c.6.2 1 .6 1.5.8.7-1.4-1.4-1.7-1.5-.8zm-1.2-55.3c.5.1.7.5 1.5.4.7-1-1.6-1-1.5-.4zm-1.5-104.6c-.3.1-.8 0-.8.4.3-.1.7 0 .8-.4zm-.8-47.9c.3-.1.8 0 .8-.4-.3.1-.8 0-.8.4zm.8-30.9c-.1-.1-.6.2-.4.4.1.1.6-.2.4-.4zm-.8 198.1h.8c0-.4.3-.5.4-.8-.5 0-.5-.5-1.2-.4v1.2zm1.5-181.9c-.1-.1-.6.2-.4.4.2.1.6-.2.4-.4zm-11.9 67.6v.8h1.2c0-.7-.5-.9-1.2-.8zm1.1 85c-.1-.1-.6.2-.4.4.1.1.6-.2.4-.4zm.4 30.5c.3-.1.8 0 .8-.4-.3.1-.8 0-.8.4zm.8-254.1c-1.3-1.2-1.2 1.4 0 0zm0 259.9c.1-.9-.1-1.5-.8-1.5-.2.9-.7 1.4.8 1.5zm-3.5-46.8c0 .2.3.4.4 0 0-.2-.3-.4-.4 0zm.8-16.2h-.8c0 .4-.3.5-.4.8.6 0 1.4 0 1.2-.8zm-.8-33.2c-.1-.1-.6.2-.4.4.1.1.6-.2.4-.4zm1.5-94.2h-.8c0 .5-.5.5-.4 1.2h.8c.1-.5.6-.6.4-1.2zm17.4 47.9h-.8v.8h.8v-.8zm46.3-173.8c-.1-.1-.6.2-.4.4.2.1.6-.2.4-.4zm-.3 90c0-.2-.3-.4-.4 0 0 .2.3.4.4 0zm.3 206.6c.1.1.6-.2.4-.4-.1-.1-.6.2-.4.4zm-1.5-127.1c.1.1.6-.2.4-.4-.1-.1-.6.2-.4.4zm.4-74.9c-1 1.3 1.3-.9 0 0zm0-60.2c.3-.1.8 0 .8-.4-.3.1-.8 0-.8.4zm1.1-30.9c-.4 2.2 1.7.2 0 0zm-3.4 165.6c1.1 1.1-1.1-1.1 0 0zm5.8 165.3c-1 1.3 1.3-.9 0 0zm-4.3-22c-.3.1-.8 0-.8.4.3-.1.8 0 .8-.4zm8.1-103.1c.1-.4-.3-1-.4-.4 0 .4.3 1 .4.4zm-8.9 68c-.3.1-.8 0-.8.4.4-.1.8-.1.8-.4zm.4-146.8c-.1-.1-.6.2-.4.4.1.1.6-.2.4-.4zm7.4 259.1c.1-1-.1-1.7-1.2-1.5-.1 1 .1 1.6 1.2 1.5zm.7-10.4c-.1-.1-.6.2-.4.4.1.1.6-.2.4-.4zm-1.9-1.9h-.8v.8h.8v-.8zm1.5-383.5c0 .5-.5.5-.4 1.2h.8c.5-.6.4-.9-.4-1.2zm0 376.9c0-.2-.3-.4-.4 0 .1.2.4.4.4 0zm-4.2-73v.8h1.2c0-.7-.4-.9-1.2-.8zm12 46h-.8v.8h.8v-.8zm-1.2-54.1c-.9 1.3 1.3-.9 0 0zm.8 96.2c.7-.7-.2-.7 0-1.9h-1.5c-.4 1.4.4 1.8 1.5 1.9zM654.4-652c.1.1.6-.2.4-.4-.1-.1-.6.2-.4.4zm-3.8 198.5c.3-.1.8 0 .8-.4-.4.1-.8 0-.8.4zm0-117.8c.1.5.4.2.8 0-.1-.4-.7-.5-.8 0zm3.8-181.8c0-.2-.3-.4-.4 0 0 .2.4.4.4 0zm-1.9 127.4h.8v-.8h-.8v.8zm.8 181.1c-.1.5-.5.7-.4 1.6 1.8.4 1.8-1.6.4-1.6zm-.4-119.7h.8v-.8h-.8v.8zm-2.3-220.5c-.7.7-.4 2.4 1.2 1.9-.1-1-.1-2-1.2-1.9zm4.2 58.3c-.3.1-.8 0-.8.4.3-.1.8 0 .8-.4zm-7.7 175.7h.8v-.8h-.8v.8zm.4 37.8c.3-.1.8 0 .8-.4-.3.1-.8 0-.8.4zm.8 44.8h-.8v.8h.8v-.8zm-1.6-309.3c0 .2.3.4.4 0 0-.2-.3-.4-.4 0zm0 202.4c0-.2-.3-.4-.4 0 0 .2.3.4.4 0zm.4 41.7c0-.2.1-.5.4-.4v-.8c-.2 0-.5-.1-.4-.4h-.8c0 .2-.1.5-.4.4v.8c.2 0 .5.1.4.4h.8zm-1.2-112.8c0 .4-.3.5-.4.8.6 0 1.3 0 1.2-.8h-.8zm-30.8 128.6c.2-1.2-.7-1.2 0-1.9h-1.9c.2 1 .3 2.1 1.9 1.9zm35.5-277.6c.1.7.3 1.3.8 1.5-.1-.7.3-1.9-.8-1.5zm-3.9 331.3c.1-.5.6-.7.4-1.5h-1.2c-.1.8.1 1.4.8 1.5zm-21.2-28.6h-.8v.8h.8v-.8zm-.8-53.7c0-.2-.3-.4-.4 0 0 .2.3.5.4 0zm0-15c0-.2-.3-.4-.4 0 0 .2.3.4.4 0zm1.2-42.5c-.1-.1-.6.2-.4.4.1.1.6-.2.4-.4zm0 156.4c-.1-.1-.6.2-.4.4.1.1.6-.2.4-.4zm0-68h-.8v.8h.8v-.8zm5.8-118.1c-1.9-.1-.5 1.4-1.2 1.9 1.1 0 1.1-1 1.2-1.9zm-1.6 161.3c-.1-.1-.6.2-.4.4.1.1.6-.1.4-.4zm-.8-37c-.9 1.3 1.3-1 0 0zm1.2 36.3c.1-.5.7-.9 0-1.2-.1.5-.7.9 0 1.2zm.8-127.8c-.3.1-.8 0-.8.4.3-.1.8-.1.8-.4zm-4.7-174.2c0 .2.3.4.4 0 0-.2-.3-.4-.4 0zM622-488.3c0 .4.7.5.8 0-.5.1-.6-.5-.8 0zm0-156.7c.1.5.4.2.8 0 0-.4-.7-.5-.8 0zm-1.2-28.6c0-.4-.7-.5-.8 0 .5 0 .7.6.8 0zm8.5 194.6c-.1-.1-.6.2-.4.4.2.1.6-.2.4-.4zm-10-61.4c0-.2-.3-.4-.4 0 0 .2.3.4.4 0zm-.8-157.5c0-.4-.7-.5-.8 0 .1.4.5.2.8 0zm-1.1 226.6c.5.1.7.6 1.5.4.6-1.1-1.6-1.1-1.5-.4zm6.2-310.4c0 .2.3.4.4 0-.1-.2-.4-.5-.4 0zm-1.2 101.9c-1.6-.2-2.7.1-2.3 1.9 1.6.3 2.7-.1 2.3-1.9zm-1.9 108.1c-.4 2.3 1.6.2 0 0zm.7-27c.1.1.6-.2.4-.4-.1-.1-.6.2-.4.4zm15.1 27c0-.2-.3-.4-.4 0 0 .2.3.5.4 0zm-.4 127.1c.1.1.6-.2.4-.4-.1-.1-.6.2-.4.4zm.4-77.6c-.1-.1-.6.2-.4.4.1 0 .6-.2.4-.4zm3.1-269.2c0-.2-.3-.4-.4 0 0 .2.3.5.4 0zm-3.1-54.4c-.1.5-.7.9 0 1.2 0-.5.7-.9 0-1.2zm5 343.2c-.1-.1-.6.2-.4.4.1.1.6-.1.4-.4zm-8.1 40.2c.1.1.6-.2.4-.4-.1-.1-.6.2-.4.4zm5.4-41.3c.1.1.6-.2.4-.4-.1-.1-.6.2-.4.4zm-9.3-27.8h-.8c0 .5-.5.5-.4 1.2h1.2v-1.2zm10.1 81.8c-.1-.1-.6.2-.4.4.1.1.6-.2.4-.4zm-10.8-266c.1.1.6-.2.4-.4-.1-.1-.6.2-.4.4zm0-110c-1 1.3 1.3-1 0 0zm.4 131.2c-.1-.1-.6.2-.4.4.1.1.6-.2.4-.4zm-.4-53.6c0-.2-.3-.4-.4 0 0 .2.3.4.4 0zm-.4 201.1c.1.1.6-.2.4-.4-.1-.1-.6.2-.4.4zm.8-49.8c-1 1.3 1.3-.9 0 0zm-.8-154c0 .2.3.4.4 0 0-.2-.3-.5-.4 0zm4.6 312.3c.6-.6.4-2-.8-1.9 0 1 0 1.9.8 1.9zm.8-65.6c-.1-.1-.6.2-.4.4.1.1.6-.2.4-.4zm-1.2-6.2c-.1-.1-.6.2-.4.4.2.1.6-.2.4-.4zM630.1-742c-.3.1-.8 0-.8.4.3-.1.8 0 .8-.4zm0-78.3c-.3.1-.8 0-.8.4.3-.1.8-.1.8-.4z"/><g><path class="st1" d="M485-436.4H0v-439.1h485z"/><path class="st2" d="M484.9-648.1c-.1-.1-.6.2-.4.4.1.1.6-.2.4-.4zm-.4-195.8c.1.1.6-.2.4-.4-.1-.1-.6.2-.4.4zm-2.7 239.8c.1.1.6-.2.4-.4-.1-.1-.6.2-.4.4zm.4-226.3c-.1-.1-.6.2-.4.4.1.1.6-.2.4-.4zm2.8 304.7v-.4c-.1.1-.3.2-.2.4h.2zm-2.1-188.4c-.1-.1-.6.2-.4.4.2 0 .6-.3.4-.4zm-5.4 259.8c-.6-.1-.7-.6-1.2-.8v1.2h.8c.3 0 .5-.1.4-.4zm-.3-142.1c0-.2-.3-.4-.4 0 0 .2.3.5.4 0zm6.9 56c-.3.1-.8 0-.8.4.3-.1.8 0 .8-.4zm-5-70.7c.4 0 .6.6.8 0-.1-.3-.7-.4-.8 0zm-.4 145.6c.1-.9-.1-1.5-.8-1.5-.6.5-.4 1.7.8 1.5zm4.6 10.4c-.1-.1-.6.2-.4.4.2.1.6-.2.4-.4z"/></g></pattern><g id="Layer_1"><pattern id="SVGID_1_" xlink:href="#New_Pattern_2" patternTransform="translate(-4140.744 1309.274)"/><path class="st3" d="M0 0h485v439H0z"/></g></svg>